<mxfile host="Electron" modified="2023-09-06T07:28:29.440Z" agent="Mozilla/5.0 (Windows NT 10.0; Win64; x64) AppleWebKit/537.36 (KHTML, like Gecko) draw.io/21.6.8 Chrome/114.0.5735.289 Electron/25.5.0 Safari/537.36" etag="AvlY7zdaCh_WJ2_E3eX1" version="21.6.8" type="device" pages="3">
  <diagram id="C5RBs43oDa-KdzZeNtuy" name="整体流程">
    <mxGraphModel dx="1695" dy="-174" grid="1" gridSize="10" guides="1" tooltips="1" connect="1" arrows="1" fold="1" page="1" pageScale="1" pageWidth="827" pageHeight="1169" math="0" shadow="0">
      <root>
        <mxCell id="WIyWlLk6GJQsqaUBKTNV-0" />
        <mxCell id="WIyWlLk6GJQsqaUBKTNV-1" parent="WIyWlLk6GJQsqaUBKTNV-0" />
        <mxCell id="TrH6mUBNPzG0UDbYGJ1b-3" value="" style="edgeStyle=orthogonalEdgeStyle;rounded=0;orthogonalLoop=1;jettySize=auto;html=1;" parent="WIyWlLk6GJQsqaUBKTNV-1" target="TrH6mUBNPzG0UDbYGJ1b-1" edge="1">
          <mxGeometry relative="1" as="geometry">
            <mxPoint x="101" y="1500" as="sourcePoint" />
          </mxGeometry>
        </mxCell>
        <UserObject label="&lt;div style=&quot;font-size: 1px&quot;&gt;&lt;font style=&quot;font-size:11.64px;font-family:Open Sans;color:#000000;direction:ltr;letter-spacing:0px;line-height:120%;opacity:1&quot;&gt;数据包&lt;/font&gt;&lt;/div&gt;" tags="Background" id="TrH6mUBNPzG0UDbYGJ1b-0">
          <mxCell style="verticalAlign=middle;align=center;overflow=width;vsdxID=11;fillColor=#33FFFF;gradientColor=none;shape=stencil(jZLdDoIwDIWfZrdka6PEa8T3MDJkERkZoOPtZekIG/h313an/XaaMsy66txKBrzrjb7Jpyr6iuGRAaimkkb1U8QwZ5iV2sir0UNTUN6endJFd/1wEyz1cdcBfKRsR+mJlJfBkFTEWp+mabIXVLJAJYAED17lS4L7NosRg48YCz5AA8oMXkauGTM0/BquNfiP10UuNtbsljKDf3j9igyXF2/cxtPH7bYtxoq3HqdgOYNS1TVdUfi+PpupRCeH+Qs=);strokeColor=#000000;spacingTop=-3;spacingBottom=-3;spacingLeft=-3;spacingRight=-3;points=[];labelBackgroundColor=none;rounded=0;html=1;whiteSpace=wrap;" parent="WIyWlLk6GJQsqaUBKTNV-1" vertex="1">
            <mxGeometry x="40" y="1460" width="80" height="80" as="geometry" />
          </mxCell>
        </UserObject>
        <mxCell id="TrH6mUBNPzG0UDbYGJ1b-5" value="" style="edgeStyle=orthogonalEdgeStyle;rounded=0;orthogonalLoop=1;jettySize=auto;html=1;" parent="WIyWlLk6GJQsqaUBKTNV-1" source="TrH6mUBNPzG0UDbYGJ1b-1" target="TrH6mUBNPzG0UDbYGJ1b-4" edge="1">
          <mxGeometry relative="1" as="geometry" />
        </mxCell>
        <mxCell id="TrH6mUBNPzG0UDbYGJ1b-1" value="收包模块" style="rounded=1;whiteSpace=wrap;html=1;" parent="WIyWlLk6GJQsqaUBKTNV-1" vertex="1">
          <mxGeometry x="200" y="1470" width="120" height="60" as="geometry" />
        </mxCell>
        <mxCell id="TrH6mUBNPzG0UDbYGJ1b-2" value="引擎启动后，协议识别模块和自定义协议解析模块会先进行规则加载，加载成功后，进入数据包处理流程，如下：&lt;br&gt;1. 网络数据包经过收包模块，到达解封装模块，获取数据包的应用层负载数据 payload；&lt;br&gt;2. 每个数据包要关联一个会话，如果没有创建会话的，要先创建会话；&lt;br&gt;3. 如果当前数据包未进行过协议识别：&lt;br&gt;&lt;span style=&quot;&quot;&gt;&lt;span style=&quot;&quot;&gt;&amp;nbsp;&amp;nbsp;&amp;nbsp;&amp;nbsp;&lt;/span&gt;&lt;/span&gt;3.1 如果是首个数据包，则进入协议识别模块，协议识别返回识别结果，执行步骤5；&lt;br&gt;&lt;span style=&quot;&quot;&gt;&lt;span style=&quot;&quot;&gt;&amp;nbsp;&amp;nbsp;&amp;nbsp;&amp;nbsp;&lt;/span&gt;&lt;/span&gt;3.2 如果不是首个数据包，则执行步骤5；&lt;br&gt;4. 如果当前数据包已识别过协议类型，则执行步骤5；&lt;br&gt;5. 协议解析模块：此模块分为自定义协议解析模块（本次新增）、标准协议解析模块（原有功能）和未知协议处理模块（原有功能），根据协议类型进入对应模块进行处理；&lt;br&gt;6. 如果当前包是会话的最后一个包，则进入协议字段输出模块，输出解析出的字段；否则继续进行数据包收取，重复上述流程；" style="text;html=1;strokeColor=none;fillColor=none;align=left;verticalAlign=top;whiteSpace=wrap;rounded=0;fontSize=15;" parent="WIyWlLk6GJQsqaUBKTNV-1" vertex="1">
          <mxGeometry x="160" y="1950" width="1150" height="200" as="geometry" />
        </mxCell>
        <mxCell id="TrH6mUBNPzG0UDbYGJ1b-7" value="" style="edgeStyle=orthogonalEdgeStyle;rounded=0;orthogonalLoop=1;jettySize=auto;html=1;" parent="WIyWlLk6GJQsqaUBKTNV-1" source="TrH6mUBNPzG0UDbYGJ1b-4" target="TrH6mUBNPzG0UDbYGJ1b-6" edge="1">
          <mxGeometry relative="1" as="geometry" />
        </mxCell>
        <mxCell id="TrH6mUBNPzG0UDbYGJ1b-4" value="解封装模块" style="rounded=1;whiteSpace=wrap;html=1;" parent="WIyWlLk6GJQsqaUBKTNV-1" vertex="1">
          <mxGeometry x="200" y="1640" width="120" height="60" as="geometry" />
        </mxCell>
        <mxCell id="TrH6mUBNPzG0UDbYGJ1b-9" value="" style="edgeStyle=orthogonalEdgeStyle;rounded=0;orthogonalLoop=1;jettySize=auto;html=1;entryX=0.5;entryY=1;entryDx=0;entryDy=0;" parent="WIyWlLk6GJQsqaUBKTNV-1" source="TrH6mUBNPzG0UDbYGJ1b-6" target="pgh4MlblcDUOaWeq8VSe-2" edge="1">
          <mxGeometry relative="1" as="geometry">
            <Array as="points">
              <mxPoint x="420" y="1840" />
            </Array>
          </mxGeometry>
        </mxCell>
        <mxCell id="TrH6mUBNPzG0UDbYGJ1b-6" value="会话查找与创建" style="rounded=1;whiteSpace=wrap;html=1;" parent="WIyWlLk6GJQsqaUBKTNV-1" vertex="1">
          <mxGeometry x="200" y="1810" width="120" height="60" as="geometry" />
        </mxCell>
        <mxCell id="TrH6mUBNPzG0UDbYGJ1b-11" value="是" style="edgeStyle=orthogonalEdgeStyle;rounded=0;orthogonalLoop=1;jettySize=auto;html=1;" parent="WIyWlLk6GJQsqaUBKTNV-1" source="TrH6mUBNPzG0UDbYGJ1b-8" target="TrH6mUBNPzG0UDbYGJ1b-10" edge="1">
          <mxGeometry relative="1" as="geometry" />
        </mxCell>
        <mxCell id="pgh4MlblcDUOaWeq8VSe-10" value="否" style="edgeStyle=orthogonalEdgeStyle;rounded=0;orthogonalLoop=1;jettySize=auto;html=1;exitX=0.5;exitY=1;exitDx=0;exitDy=0;entryX=0.5;entryY=0;entryDx=0;entryDy=0;" edge="1" parent="WIyWlLk6GJQsqaUBKTNV-1" source="TrH6mUBNPzG0UDbYGJ1b-8" target="pgh4MlblcDUOaWeq8VSe-6">
          <mxGeometry relative="1" as="geometry">
            <mxPoint x="610" y="1590" as="targetPoint" />
            <Array as="points">
              <mxPoint x="510" y="1550" />
              <mxPoint x="610" y="1550" />
            </Array>
          </mxGeometry>
        </mxCell>
        <mxCell id="TrH6mUBNPzG0UDbYGJ1b-8" value="首个数据包？" style="rhombus;whiteSpace=wrap;html=1;rounded=1;" parent="WIyWlLk6GJQsqaUBKTNV-1" vertex="1">
          <mxGeometry x="470" y="1460" width="80" height="80" as="geometry" />
        </mxCell>
        <mxCell id="pgh4MlblcDUOaWeq8VSe-13" style="edgeStyle=orthogonalEdgeStyle;rounded=0;orthogonalLoop=1;jettySize=auto;html=1;" edge="1" parent="WIyWlLk6GJQsqaUBKTNV-1" source="TrH6mUBNPzG0UDbYGJ1b-10">
          <mxGeometry relative="1" as="geometry">
            <mxPoint x="610" y="1560" as="targetPoint" />
            <Array as="points">
              <mxPoint x="760" y="1560" />
            </Array>
          </mxGeometry>
        </mxCell>
        <mxCell id="TrH6mUBNPzG0UDbYGJ1b-10" value="协议识别模块" style="whiteSpace=wrap;html=1;rounded=1;" parent="WIyWlLk6GJQsqaUBKTNV-1" vertex="1">
          <mxGeometry x="700" y="1470" width="120" height="60" as="geometry" />
        </mxCell>
        <mxCell id="TrH6mUBNPzG0UDbYGJ1b-17" value="" style="edgeStyle=orthogonalEdgeStyle;rounded=0;orthogonalLoop=1;jettySize=auto;html=1;exitX=0.5;exitY=1;exitDx=0;exitDy=0;" parent="WIyWlLk6GJQsqaUBKTNV-1" source="TrH6mUBNPzG0UDbYGJ1b-14" edge="1">
          <mxGeometry relative="1" as="geometry">
            <Array as="points">
              <mxPoint x="760" y="1730" />
            </Array>
            <mxPoint x="865" y="1733" as="targetPoint" />
          </mxGeometry>
        </mxCell>
        <mxCell id="TrH6mUBNPzG0UDbYGJ1b-18" value="否" style="edgeLabel;html=1;align=center;verticalAlign=middle;resizable=0;points=[];" parent="TrH6mUBNPzG0UDbYGJ1b-17" vertex="1" connectable="0">
          <mxGeometry relative="1" as="geometry">
            <mxPoint x="2" y="-50" as="offset" />
          </mxGeometry>
        </mxCell>
        <mxCell id="TrH6mUBNPzG0UDbYGJ1b-20" value="是" style="edgeStyle=orthogonalEdgeStyle;rounded=0;orthogonalLoop=1;jettySize=auto;html=1;" parent="WIyWlLk6GJQsqaUBKTNV-1" source="TrH6mUBNPzG0UDbYGJ1b-14" target="TrH6mUBNPzG0UDbYGJ1b-19" edge="1">
          <mxGeometry relative="1" as="geometry" />
        </mxCell>
        <mxCell id="TrH6mUBNPzG0UDbYGJ1b-14" value="用户自定义协议？" style="rhombus;whiteSpace=wrap;html=1;rounded=1;" parent="WIyWlLk6GJQsqaUBKTNV-1" vertex="1">
          <mxGeometry x="720" y="1580" width="80" height="80" as="geometry" />
        </mxCell>
        <mxCell id="TrH6mUBNPzG0UDbYGJ1b-29" style="edgeStyle=orthogonalEdgeStyle;rounded=0;orthogonalLoop=1;jettySize=auto;html=1;entryX=0;entryY=0.5;entryDx=0;entryDy=0;" parent="WIyWlLk6GJQsqaUBKTNV-1" source="TrH6mUBNPzG0UDbYGJ1b-16" target="TrH6mUBNPzG0UDbYGJ1b-27" edge="1">
          <mxGeometry relative="1" as="geometry" />
        </mxCell>
        <mxCell id="TrH6mUBNPzG0UDbYGJ1b-16" value="标准协议解析模块" style="whiteSpace=wrap;html=1;rounded=1;" parent="WIyWlLk6GJQsqaUBKTNV-1" vertex="1">
          <mxGeometry x="870" y="1700" width="120" height="60" as="geometry" />
        </mxCell>
        <mxCell id="pgh4MlblcDUOaWeq8VSe-12" style="edgeStyle=orthogonalEdgeStyle;rounded=0;orthogonalLoop=1;jettySize=auto;html=1;" edge="1" parent="WIyWlLk6GJQsqaUBKTNV-1" source="TrH6mUBNPzG0UDbYGJ1b-19">
          <mxGeometry relative="1" as="geometry">
            <mxPoint x="1040" y="1730" as="targetPoint" />
          </mxGeometry>
        </mxCell>
        <mxCell id="TrH6mUBNPzG0UDbYGJ1b-19" value="自定义协议解析模块" style="whiteSpace=wrap;html=1;rounded=1;" parent="WIyWlLk6GJQsqaUBKTNV-1" vertex="1">
          <mxGeometry x="870" y="1590" width="120" height="60" as="geometry" />
        </mxCell>
        <mxCell id="TrH6mUBNPzG0UDbYGJ1b-25" value="" style="edgeStyle=orthogonalEdgeStyle;rounded=0;orthogonalLoop=1;jettySize=auto;html=1;" parent="WIyWlLk6GJQsqaUBKTNV-1" source="TrH6mUBNPzG0UDbYGJ1b-22" target="TrH6mUBNPzG0UDbYGJ1b-24" edge="1">
          <mxGeometry relative="1" as="geometry" />
        </mxCell>
        <mxCell id="TrH6mUBNPzG0UDbYGJ1b-22" value="协议字段输出模块" style="whiteSpace=wrap;html=1;rounded=1;" parent="WIyWlLk6GJQsqaUBKTNV-1" vertex="1">
          <mxGeometry x="1240" y="1700" width="120" height="60" as="geometry" />
        </mxCell>
        <UserObject label="&lt;div style=&quot;font-size: 1px&quot;&gt;&lt;font style=&quot;font-size:11.64px;font-family:Open Sans;color:#000000;direction:ltr;letter-spacing:0px;line-height:120%;opacity:1&quot;&gt;其它组件&lt;/font&gt;&lt;/div&gt;" tags="Background" id="TrH6mUBNPzG0UDbYGJ1b-24">
          <mxCell style="verticalAlign=middle;align=center;overflow=width;vsdxID=12;fillColor=#33FFFF;gradientColor=none;shape=stencil(jZLdDoIwDIWfZrdka6PEa8T3MDJkERkZoOPtZekIG/h313an/XaaMsy66txKBrzrjb7Jpyr6iuGRAaimkkb1U8QwZ5iV2sir0UNTUN6endJFd/1wEyz1cdcBfKRsR+mJlJfBkFTEWp+mabIXVLJAJYAED17lS4L7NosRg48YCz5AA8oMXkauGTM0/BquNfiP10UuNtbsljKDf3j9igyXF2/cxtPH7bYtxoq3HqdgOYNS1TVdUfi+PpupRCeH+Qs=);strokeColor=#000000;spacingTop=-3;spacingBottom=-3;spacingLeft=-3;spacingRight=-3;points=[];labelBackgroundColor=none;rounded=0;html=1;whiteSpace=wrap;" parent="WIyWlLk6GJQsqaUBKTNV-1" vertex="1">
            <mxGeometry x="1430" y="1690" width="80" height="80" as="geometry" />
          </mxCell>
        </UserObject>
        <mxCell id="TrH6mUBNPzG0UDbYGJ1b-30" value="是" style="edgeStyle=orthogonalEdgeStyle;rounded=0;orthogonalLoop=1;jettySize=auto;html=1;" parent="WIyWlLk6GJQsqaUBKTNV-1" source="TrH6mUBNPzG0UDbYGJ1b-27" target="TrH6mUBNPzG0UDbYGJ1b-22" edge="1">
          <mxGeometry relative="1" as="geometry" />
        </mxCell>
        <mxCell id="TrH6mUBNPzG0UDbYGJ1b-32" value="否" style="edgeStyle=orthogonalEdgeStyle;rounded=0;orthogonalLoop=1;jettySize=auto;html=1;entryX=0.5;entryY=0;entryDx=0;entryDy=0;" parent="WIyWlLk6GJQsqaUBKTNV-1" source="TrH6mUBNPzG0UDbYGJ1b-27" target="TrH6mUBNPzG0UDbYGJ1b-1" edge="1">
          <mxGeometry x="-0.8945" relative="1" as="geometry">
            <mxPoint x="1120" y="1740" as="targetPoint" />
            <Array as="points">
              <mxPoint x="1120" y="1430" />
              <mxPoint x="260" y="1430" />
            </Array>
            <mxPoint as="offset" />
          </mxGeometry>
        </mxCell>
        <mxCell id="TrH6mUBNPzG0UDbYGJ1b-27" value="会话已结束？" style="rhombus;whiteSpace=wrap;html=1;rounded=1;" parent="WIyWlLk6GJQsqaUBKTNV-1" vertex="1">
          <mxGeometry x="1080" y="1690" width="80" height="80" as="geometry" />
        </mxCell>
        <mxCell id="TrH6mUBNPzG0UDbYGJ1b-36" value="" style="edgeStyle=orthogonalEdgeStyle;rounded=0;orthogonalLoop=1;jettySize=auto;html=1;" parent="WIyWlLk6GJQsqaUBKTNV-1" source="TrH6mUBNPzG0UDbYGJ1b-34" target="TrH6mUBNPzG0UDbYGJ1b-35" edge="1">
          <mxGeometry relative="1" as="geometry" />
        </mxCell>
        <mxCell id="TrH6mUBNPzG0UDbYGJ1b-34" value="用户页面" style="rounded=1;whiteSpace=wrap;html=1;" parent="WIyWlLk6GJQsqaUBKTNV-1" vertex="1">
          <mxGeometry x="320" y="1240" width="120" height="60" as="geometry" />
        </mxCell>
        <mxCell id="TrH6mUBNPzG0UDbYGJ1b-39" style="edgeStyle=orthogonalEdgeStyle;rounded=0;orthogonalLoop=1;jettySize=auto;html=1;" parent="WIyWlLk6GJQsqaUBKTNV-1" source="TrH6mUBNPzG0UDbYGJ1b-35" target="TrH6mUBNPzG0UDbYGJ1b-38" edge="1">
          <mxGeometry relative="1" as="geometry" />
        </mxCell>
        <mxCell id="TrH6mUBNPzG0UDbYGJ1b-40" style="edgeStyle=orthogonalEdgeStyle;rounded=0;orthogonalLoop=1;jettySize=auto;html=1;entryX=0.5;entryY=0;entryDx=0;entryDy=0;" parent="WIyWlLk6GJQsqaUBKTNV-1" source="TrH6mUBNPzG0UDbYGJ1b-35" target="TrH6mUBNPzG0UDbYGJ1b-37" edge="1">
          <mxGeometry relative="1" as="geometry" />
        </mxCell>
        <mxCell id="TrH6mUBNPzG0UDbYGJ1b-35" value="自定义协议规则配置解析模块" style="whiteSpace=wrap;html=1;rounded=1;" parent="WIyWlLk6GJQsqaUBKTNV-1" vertex="1">
          <mxGeometry x="520" y="1240" width="120" height="60" as="geometry" />
        </mxCell>
        <mxCell id="TrH6mUBNPzG0UDbYGJ1b-41" value="&lt;span style=&quot;color: rgb(0, 0, 0); font-family: &amp;quot;Open Sans&amp;quot;; font-size: 11.64px; font-style: normal; font-variant-ligatures: normal; font-variant-caps: normal; font-weight: 400; letter-spacing: normal; orphans: 2; text-align: center; text-indent: 0px; text-transform: none; widows: 2; word-spacing: 0px; -webkit-text-stroke-width: 0px; background-color: rgb(251, 251, 251); text-decoration-thickness: initial; text-decoration-style: initial; text-decoration-color: initial; float: none; display: inline !important;&quot;&gt;规则加载&lt;/span&gt;" style="edgeStyle=orthogonalEdgeStyle;rounded=0;orthogonalLoop=1;jettySize=auto;html=1;dashed=1;" parent="WIyWlLk6GJQsqaUBKTNV-1" source="TrH6mUBNPzG0UDbYGJ1b-37" target="TrH6mUBNPzG0UDbYGJ1b-10" edge="1">
          <mxGeometry x="-0.6" relative="1" as="geometry">
            <Array as="points">
              <mxPoint x="760" y="1400" />
              <mxPoint x="760" y="1400" />
            </Array>
            <mxPoint as="offset" />
          </mxGeometry>
        </mxCell>
        <mxCell id="TrH6mUBNPzG0UDbYGJ1b-37" value="协议识别规则文件" style="shape=document;whiteSpace=wrap;html=1;boundedLbl=1;fillColor=#f5f5f5;gradientColor=#b3b3b3;strokeColor=#666666;" parent="WIyWlLk6GJQsqaUBKTNV-1" vertex="1">
          <mxGeometry x="700" y="1310" width="120" height="60" as="geometry" />
        </mxCell>
        <mxCell id="TrH6mUBNPzG0UDbYGJ1b-42" value="&lt;span style=&quot;color: rgb(0, 0, 0); font-family: &amp;quot;Open Sans&amp;quot;; font-size: 11.64px; font-style: normal; font-variant-ligatures: normal; font-variant-caps: normal; font-weight: 400; letter-spacing: normal; orphans: 2; text-align: center; text-indent: 0px; text-transform: none; widows: 2; word-spacing: 0px; -webkit-text-stroke-width: 0px; background-color: rgb(251, 251, 251); text-decoration-thickness: initial; text-decoration-style: initial; text-decoration-color: initial; float: none; display: inline !important;&quot;&gt;规则加载&lt;/span&gt;" style="edgeStyle=orthogonalEdgeStyle;rounded=0;orthogonalLoop=1;jettySize=auto;html=1;dashed=1;" parent="WIyWlLk6GJQsqaUBKTNV-1" source="TrH6mUBNPzG0UDbYGJ1b-38" target="TrH6mUBNPzG0UDbYGJ1b-19" edge="1">
          <mxGeometry x="-0.8182" relative="1" as="geometry">
            <mxPoint as="offset" />
          </mxGeometry>
        </mxCell>
        <mxCell id="TrH6mUBNPzG0UDbYGJ1b-38" value="字段特征规则文件" style="shape=document;whiteSpace=wrap;html=1;boundedLbl=1;fillColor=#f5f5f5;gradientColor=#b3b3b3;strokeColor=#666666;" parent="WIyWlLk6GJQsqaUBKTNV-1" vertex="1">
          <mxGeometry x="870" y="1310" width="120" height="60" as="geometry" />
        </mxCell>
        <mxCell id="pgh4MlblcDUOaWeq8VSe-3" value="否" style="edgeStyle=orthogonalEdgeStyle;rounded=0;orthogonalLoop=1;jettySize=auto;html=1;entryX=0;entryY=0.5;entryDx=0;entryDy=0;exitX=0.5;exitY=0;exitDx=0;exitDy=0;" edge="1" parent="WIyWlLk6GJQsqaUBKTNV-1" source="pgh4MlblcDUOaWeq8VSe-2" target="TrH6mUBNPzG0UDbYGJ1b-8">
          <mxGeometry x="-0.6843" relative="1" as="geometry">
            <mxPoint as="offset" />
          </mxGeometry>
        </mxCell>
        <mxCell id="pgh4MlblcDUOaWeq8VSe-4" value="否" style="edgeStyle=orthogonalEdgeStyle;rounded=0;orthogonalLoop=1;jettySize=auto;html=1;entryX=0;entryY=0.5;entryDx=0;entryDy=0;exitX=0.5;exitY=1;exitDx=0;exitDy=0;" edge="1" parent="WIyWlLk6GJQsqaUBKTNV-1" source="pgh4MlblcDUOaWeq8VSe-6" target="pgh4MlblcDUOaWeq8VSe-5">
          <mxGeometry x="-0.8478" relative="1" as="geometry">
            <Array as="points">
              <mxPoint x="610" y="1840" />
            </Array>
            <mxPoint y="1" as="offset" />
          </mxGeometry>
        </mxCell>
        <mxCell id="pgh4MlblcDUOaWeq8VSe-7" value="是" style="edgeStyle=orthogonalEdgeStyle;rounded=0;orthogonalLoop=1;jettySize=auto;html=1;" edge="1" parent="WIyWlLk6GJQsqaUBKTNV-1" source="pgh4MlblcDUOaWeq8VSe-2" target="pgh4MlblcDUOaWeq8VSe-6">
          <mxGeometry relative="1" as="geometry" />
        </mxCell>
        <mxCell id="pgh4MlblcDUOaWeq8VSe-2" value="已识别协议类型？" style="rhombus;whiteSpace=wrap;html=1;rounded=1;" vertex="1" parent="WIyWlLk6GJQsqaUBKTNV-1">
          <mxGeometry x="380" y="1580" width="80" height="80" as="geometry" />
        </mxCell>
        <mxCell id="pgh4MlblcDUOaWeq8VSe-11" style="edgeStyle=orthogonalEdgeStyle;rounded=0;orthogonalLoop=1;jettySize=auto;html=1;" edge="1" parent="WIyWlLk6GJQsqaUBKTNV-1" source="pgh4MlblcDUOaWeq8VSe-5">
          <mxGeometry relative="1" as="geometry">
            <mxPoint x="1040" y="1730" as="targetPoint" />
          </mxGeometry>
        </mxCell>
        <mxCell id="pgh4MlblcDUOaWeq8VSe-5" value="未知协议处理模块" style="whiteSpace=wrap;html=1;rounded=1;" vertex="1" parent="WIyWlLk6GJQsqaUBKTNV-1">
          <mxGeometry x="870" y="1810" width="120" height="60" as="geometry" />
        </mxCell>
        <mxCell id="pgh4MlblcDUOaWeq8VSe-8" value="是" style="edgeStyle=orthogonalEdgeStyle;rounded=0;orthogonalLoop=1;jettySize=auto;html=1;entryX=0;entryY=0.5;entryDx=0;entryDy=0;" edge="1" parent="WIyWlLk6GJQsqaUBKTNV-1" source="pgh4MlblcDUOaWeq8VSe-6" target="TrH6mUBNPzG0UDbYGJ1b-14">
          <mxGeometry relative="1" as="geometry" />
        </mxCell>
        <mxCell id="pgh4MlblcDUOaWeq8VSe-6" value="已知协议类型？" style="rhombus;whiteSpace=wrap;html=1;rounded=1;" vertex="1" parent="WIyWlLk6GJQsqaUBKTNV-1">
          <mxGeometry x="570" y="1580" width="80" height="80" as="geometry" />
        </mxCell>
      </root>
    </mxGraphModel>
  </diagram>
  <diagram id="lfhVrNANtl0c4oEmqBP4" name="协议识别模块">
    <mxGraphModel dx="1695" dy="-174" grid="1" gridSize="10" guides="1" tooltips="1" connect="1" arrows="1" fold="1" page="1" pageScale="1" pageWidth="827" pageHeight="1169" math="0" shadow="0">
      <root>
        <mxCell id="0" />
        <mxCell id="1" parent="0" />
        <mxCell id="qliQ6zrFNsQcZsXevNhg-5" value="" style="edgeStyle=orthogonalEdgeStyle;rounded=0;orthogonalLoop=1;jettySize=auto;html=1;entryX=0;entryY=0.5;entryDx=0;entryDy=0;" edge="1" parent="1" source="-kqVmEGTciwaDOZk5PAz-1" target="qliQ6zrFNsQcZsXevNhg-6">
          <mxGeometry relative="1" as="geometry" />
        </mxCell>
        <UserObject label="&lt;div style=&quot;&quot;&gt;&lt;font face=&quot;Open Sans&quot;&gt;&lt;span style=&quot;font-size: 11.64px;&quot;&gt;首个数据包的待解析数据&lt;/span&gt;&lt;/font&gt;&lt;/div&gt;" tags="Background" id="-kqVmEGTciwaDOZk5PAz-1">
          <mxCell style="verticalAlign=middle;align=center;overflow=width;vsdxID=11;fillColor=#33FFFF;gradientColor=none;shape=stencil(jZLdDoIwDIWfZrdka6PEa8T3MDJkERkZoOPtZekIG/h313an/XaaMsy66txKBrzrjb7Jpyr6iuGRAaimkkb1U8QwZ5iV2sir0UNTUN6endJFd/1wEyz1cdcBfKRsR+mJlJfBkFTEWp+mabIXVLJAJYAED17lS4L7NosRg48YCz5AA8oMXkauGTM0/BquNfiP10UuNtbsljKDf3j9igyXF2/cxtPH7bYtxoq3HqdgOYNS1TVdUfi+PpupRCeH+Qs=);strokeColor=#000000;spacingTop=-3;spacingBottom=-3;spacingLeft=-3;spacingRight=-3;points=[];labelBackgroundColor=none;rounded=0;html=1;whiteSpace=wrap;" vertex="1" parent="1">
            <mxGeometry x="230" y="1450" width="80" height="80" as="geometry" />
          </mxCell>
        </UserObject>
        <mxCell id="qliQ6zrFNsQcZsXevNhg-4" value="" style="edgeStyle=orthogonalEdgeStyle;rounded=0;orthogonalLoop=1;jettySize=auto;html=1;" edge="1" parent="1" source="F9l-_YXsxID4sJf8kynH-1" target="qliQ6zrFNsQcZsXevNhg-6">
          <mxGeometry relative="1" as="geometry">
            <mxPoint x="450" y="1470" as="targetPoint" />
          </mxGeometry>
        </mxCell>
        <mxCell id="F9l-_YXsxID4sJf8kynH-1" value="规则加载模块" style="whiteSpace=wrap;html=1;rounded=1;" vertex="1" parent="1">
          <mxGeometry x="390" y="1340" width="120" height="60" as="geometry" />
        </mxCell>
        <mxCell id="qliQ6zrFNsQcZsXevNhg-3" value="" style="edgeStyle=orthogonalEdgeStyle;rounded=0;orthogonalLoop=1;jettySize=auto;html=1;" edge="1" parent="1" source="qliQ6zrFNsQcZsXevNhg-2" target="F9l-_YXsxID4sJf8kynH-1">
          <mxGeometry relative="1" as="geometry" />
        </mxCell>
        <mxCell id="qliQ6zrFNsQcZsXevNhg-2" value="" style="strokeWidth=2;html=1;shape=mxgraph.flowchart.start_2;whiteSpace=wrap;" vertex="1" parent="1">
          <mxGeometry x="430" y="1240" width="40" height="40" as="geometry" />
        </mxCell>
        <mxCell id="qliQ6zrFNsQcZsXevNhg-8" value="" style="edgeStyle=orthogonalEdgeStyle;rounded=0;orthogonalLoop=1;jettySize=auto;html=1;" edge="1" parent="1" source="qliQ6zrFNsQcZsXevNhg-6" target="qliQ6zrFNsQcZsXevNhg-7">
          <mxGeometry relative="1" as="geometry" />
        </mxCell>
        <mxCell id="qliQ6zrFNsQcZsXevNhg-6" value="偏移量调整" style="whiteSpace=wrap;html=1;rounded=1;" vertex="1" parent="1">
          <mxGeometry x="390" y="1460" width="120" height="60" as="geometry" />
        </mxCell>
        <mxCell id="qliQ6zrFNsQcZsXevNhg-12" value="" style="edgeStyle=orthogonalEdgeStyle;rounded=0;orthogonalLoop=1;jettySize=auto;html=1;" edge="1" parent="1" source="qliQ6zrFNsQcZsXevNhg-7" target="qliQ6zrFNsQcZsXevNhg-11">
          <mxGeometry relative="1" as="geometry" />
        </mxCell>
        <mxCell id="qliQ6zrFNsQcZsXevNhg-7" value="特征字符串匹配" style="whiteSpace=wrap;html=1;rounded=1;" vertex="1" parent="1">
          <mxGeometry x="390" y="1600" width="120" height="60" as="geometry" />
        </mxCell>
        <mxCell id="xuWwWsow6VL-r4ZJhH9k-2" value="" style="edgeStyle=orthogonalEdgeStyle;rounded=0;orthogonalLoop=1;jettySize=auto;html=1;" edge="1" parent="1" source="qliQ6zrFNsQcZsXevNhg-11" target="xuWwWsow6VL-r4ZJhH9k-1">
          <mxGeometry relative="1" as="geometry" />
        </mxCell>
        <mxCell id="qliQ6zrFNsQcZsXevNhg-11" value="返回识别" style="whiteSpace=wrap;html=1;rounded=1;" vertex="1" parent="1">
          <mxGeometry x="390" y="1740" width="120" height="60" as="geometry" />
        </mxCell>
        <mxCell id="xuWwWsow6VL-r4ZJhH9k-1" value="" style="strokeWidth=2;html=1;shape=mxgraph.flowchart.start_2;whiteSpace=wrap;" vertex="1" parent="1">
          <mxGeometry x="430" y="1860" width="40" height="40" as="geometry" />
        </mxCell>
        <mxCell id="ojshgfI06Dl0d_7GDOuJ-1" value="进程启动后，先加载协议特征识别的规则文件，加载成功后，执行协议识别流程，如下：&lt;br&gt;1. 根据规则中的特征偏移量，调整待解析数据的位置偏移量；&lt;br&gt;2. 根据规则中的特征字符串，与待解析数据匹配；&lt;br&gt;3. 返回识别结果；" style="text;html=1;strokeColor=none;fillColor=none;align=left;verticalAlign=top;whiteSpace=wrap;rounded=0;fontSize=14;" vertex="1" parent="1">
          <mxGeometry x="230" y="1970" width="590" height="140" as="geometry" />
        </mxCell>
      </root>
    </mxGraphModel>
  </diagram>
  <diagram name="协议解析模块" id="JHSgENw5iM5s6X8B0Y1_">
    <mxGraphModel dx="1695" dy="-174" grid="1" gridSize="10" guides="1" tooltips="1" connect="1" arrows="1" fold="1" page="1" pageScale="1" pageWidth="827" pageHeight="1169" math="0" shadow="0">
      <root>
        <mxCell id="DRnYkZTl3iuKx-j_t5XB-0" />
        <mxCell id="DRnYkZTl3iuKx-j_t5XB-1" parent="DRnYkZTl3iuKx-j_t5XB-0" />
        <mxCell id="DRnYkZTl3iuKx-j_t5XB-2" value="" style="edgeStyle=orthogonalEdgeStyle;rounded=0;orthogonalLoop=1;jettySize=auto;html=1;entryX=0;entryY=0.5;entryDx=0;entryDy=0;" edge="1" parent="DRnYkZTl3iuKx-j_t5XB-1" source="DRnYkZTl3iuKx-j_t5XB-3" target="DRnYkZTl3iuKx-j_t5XB-9">
          <mxGeometry relative="1" as="geometry" />
        </mxCell>
        <UserObject label="&lt;div style=&quot;&quot;&gt;&lt;font face=&quot;Open Sans&quot;&gt;&lt;span style=&quot;font-size: 11.64px;&quot;&gt;数据包的待解析数据&lt;/span&gt;&lt;/font&gt;&lt;/div&gt;" tags="Background" id="DRnYkZTl3iuKx-j_t5XB-3">
          <mxCell style="verticalAlign=middle;align=center;overflow=width;vsdxID=11;fillColor=#33FFFF;gradientColor=none;shape=stencil(jZLdDoIwDIWfZrdka6PEa8T3MDJkERkZoOPtZekIG/h313an/XaaMsy66txKBrzrjb7Jpyr6iuGRAaimkkb1U8QwZ5iV2sir0UNTUN6endJFd/1wEyz1cdcBfKRsR+mJlJfBkFTEWp+mabIXVLJAJYAED17lS4L7NosRg48YCz5AA8oMXkauGTM0/BquNfiP10UuNtbsljKDf3j9igyXF2/cxtPH7bYtxoq3HqdgOYNS1TVdUfi+PpupRCeH+Qs=);strokeColor=#000000;spacingTop=-3;spacingBottom=-3;spacingLeft=-3;spacingRight=-3;points=[];labelBackgroundColor=none;rounded=0;html=1;whiteSpace=wrap;" vertex="1" parent="DRnYkZTl3iuKx-j_t5XB-1">
            <mxGeometry x="230" y="1450" width="80" height="80" as="geometry" />
          </mxCell>
        </UserObject>
        <mxCell id="DRnYkZTl3iuKx-j_t5XB-4" value="" style="edgeStyle=orthogonalEdgeStyle;rounded=0;orthogonalLoop=1;jettySize=auto;html=1;" edge="1" parent="DRnYkZTl3iuKx-j_t5XB-1" source="DRnYkZTl3iuKx-j_t5XB-5" target="DRnYkZTl3iuKx-j_t5XB-9">
          <mxGeometry relative="1" as="geometry">
            <mxPoint x="450" y="1470" as="targetPoint" />
          </mxGeometry>
        </mxCell>
        <mxCell id="DRnYkZTl3iuKx-j_t5XB-5" value="规则加载模块" style="whiteSpace=wrap;html=1;rounded=1;" vertex="1" parent="DRnYkZTl3iuKx-j_t5XB-1">
          <mxGeometry x="390" y="1340" width="120" height="60" as="geometry" />
        </mxCell>
        <mxCell id="DRnYkZTl3iuKx-j_t5XB-6" value="" style="edgeStyle=orthogonalEdgeStyle;rounded=0;orthogonalLoop=1;jettySize=auto;html=1;" edge="1" parent="DRnYkZTl3iuKx-j_t5XB-1" source="DRnYkZTl3iuKx-j_t5XB-7" target="DRnYkZTl3iuKx-j_t5XB-5">
          <mxGeometry relative="1" as="geometry" />
        </mxCell>
        <mxCell id="DRnYkZTl3iuKx-j_t5XB-7" value="" style="strokeWidth=2;html=1;shape=mxgraph.flowchart.start_2;whiteSpace=wrap;" vertex="1" parent="DRnYkZTl3iuKx-j_t5XB-1">
          <mxGeometry x="430" y="1240" width="40" height="40" as="geometry" />
        </mxCell>
        <mxCell id="DRnYkZTl3iuKx-j_t5XB-8" value="" style="edgeStyle=orthogonalEdgeStyle;rounded=0;orthogonalLoop=1;jettySize=auto;html=1;" edge="1" parent="DRnYkZTl3iuKx-j_t5XB-1" source="DRnYkZTl3iuKx-j_t5XB-9" target="DRnYkZTl3iuKx-j_t5XB-11">
          <mxGeometry relative="1" as="geometry" />
        </mxCell>
        <mxCell id="DRnYkZTl3iuKx-j_t5XB-9" value="偏移量调整" style="whiteSpace=wrap;html=1;rounded=1;" vertex="1" parent="DRnYkZTl3iuKx-j_t5XB-1">
          <mxGeometry x="390" y="1460" width="120" height="60" as="geometry" />
        </mxCell>
        <mxCell id="DRnYkZTl3iuKx-j_t5XB-10" value="" style="edgeStyle=orthogonalEdgeStyle;rounded=0;orthogonalLoop=1;jettySize=auto;html=1;" edge="1" parent="DRnYkZTl3iuKx-j_t5XB-1" source="DRnYkZTl3iuKx-j_t5XB-11" target="DRnYkZTl3iuKx-j_t5XB-13">
          <mxGeometry relative="1" as="geometry" />
        </mxCell>
        <mxCell id="DRnYkZTl3iuKx-j_t5XB-11" value="提取指定字节的数据" style="whiteSpace=wrap;html=1;rounded=1;" vertex="1" parent="DRnYkZTl3iuKx-j_t5XB-1">
          <mxGeometry x="390" y="1600" width="120" height="60" as="geometry" />
        </mxCell>
        <mxCell id="DRnYkZTl3iuKx-j_t5XB-12" value="" style="edgeStyle=orthogonalEdgeStyle;rounded=0;orthogonalLoop=1;jettySize=auto;html=1;" edge="1" parent="DRnYkZTl3iuKx-j_t5XB-1" source="DRnYkZTl3iuKx-j_t5XB-13" target="DRnYkZTl3iuKx-j_t5XB-14">
          <mxGeometry relative="1" as="geometry" />
        </mxCell>
        <mxCell id="DRnYkZTl3iuKx-j_t5XB-13" value="字段输出" style="whiteSpace=wrap;html=1;rounded=1;" vertex="1" parent="DRnYkZTl3iuKx-j_t5XB-1">
          <mxGeometry x="390" y="1740" width="120" height="60" as="geometry" />
        </mxCell>
        <mxCell id="DRnYkZTl3iuKx-j_t5XB-14" value="" style="strokeWidth=2;html=1;shape=mxgraph.flowchart.start_2;whiteSpace=wrap;" vertex="1" parent="DRnYkZTl3iuKx-j_t5XB-1">
          <mxGeometry x="430" y="1860" width="40" height="40" as="geometry" />
        </mxCell>
        <mxCell id="X7jv4gKbTocTi_5t1Ryr-0" value="进程启动后，先加载自定义协议字段提取的规则文件，加载成功后，执行自定义协议解析流程，如下：&lt;br&gt;1. 根据规则中的特征偏移量，调整待解析数据的位置偏移量；&lt;br&gt;2. 根据规则中的字段长度，从待解析数据中提取字段内容，并根据规则中指定的字段类型、大小端等信息处理字段内容；&lt;br&gt;3. 字段输出：关联字段名与字段内容（可能有多个）；" style="text;html=1;strokeColor=none;fillColor=none;align=left;verticalAlign=top;whiteSpace=wrap;rounded=0;fontSize=14;" vertex="1" parent="DRnYkZTl3iuKx-j_t5XB-1">
          <mxGeometry x="120" y="1970" width="700" height="140" as="geometry" />
        </mxCell>
      </root>
    </mxGraphModel>
  </diagram>
</mxfile>
